<svg viewBox="0 0 137 32" id="logo-laybuy-solid" xmlns="http://www.w3.org/2000/svg">
    <g fill="currentColor">
        <path d="M22.312 2.768l-3.416 3.558c-.245.255-.578 0-.578 0l-4.376-4.638a3.523 3.523 0 0 0-5.11 0c-1.406 1.464-1.406 3.859 0 5.323l7.258 7.56a3.523 3.523 0 0 0 5.111 0l6.074-6.326 1.065-1.138a1.814 1.814 0 0 1 2.638 0c.73.759.713 1.929-.016 2.688l-1.095 1.15-11.036 11.494c-.338.351-.665.001-.665.001L6.165 9.942a3.523 3.523 0 0 0-5.11 0c-1.406 1.464-1.406 3.859 0 5.323l14.961 15.582-.079-.072a3.523 3.523 0 0 0 5.111 0l13.93-14.508.148-.154c3.544-3.69 3.563-9.655.019-13.345-3.544-3.69-9.29-3.69-12.833 0"></path>
    </g>
</svg>